<svg width="88" height="35" viewBox="0 0 88 35" fill="none" xmlns="http://www.w3.org/2000/svg">
<rect x="1.1377" y="0.5" width="86.2057" height="34" rx="2.5" fill="white" stroke="#0A66C2"/>
<path d="M25.0304 12.27V22H23.4344V15.336L20.4664 22H19.3604L16.3784 15.336V22H14.7824V12.27H16.5044L19.9204 19.9L23.3224 12.27H25.0304ZM30.4741 22.126C29.7461 22.126 29.0881 21.9627 28.5001 21.636C27.9121 21.3 27.4501 20.8333 27.1141 20.236C26.7781 19.6293 26.6101 18.9293 26.6101 18.136C26.6101 17.352 26.7828 16.6567 27.1281 16.05C27.4735 15.4433 27.9448 14.9767 28.5421 14.65C29.1395 14.3233 29.8068 14.16 30.5441 14.16C31.2815 14.16 31.9488 14.3233 32.5461 14.65C33.1435 14.9767 33.6148 15.4433 33.9601 16.05C34.3055 16.6567 34.4781 17.352 34.4781 18.136C34.4781 18.92 34.3008 19.6153 33.9461 20.222C33.5915 20.8287 33.1061 21.3 32.4901 21.636C31.8835 21.9627 31.2115 22.126 30.4741 22.126ZM30.4741 20.74C30.8848 20.74 31.2675 20.642 31.6221 20.446C31.9861 20.25 32.2801 19.956 32.5041 19.564C32.7281 19.172 32.8401 18.696 32.8401 18.136C32.8401 17.576 32.7328 17.1047 32.5181 16.722C32.3035 16.33 32.0188 16.036 31.6641 15.84C31.3095 15.644 30.9268 15.546 30.5161 15.546C30.1055 15.546 29.7228 15.644 29.3681 15.84C29.0228 16.036 28.7475 16.33 28.5421 16.722C28.3368 17.1047 28.2341 17.576 28.2341 18.136C28.2341 18.9667 28.4441 19.6107 28.8641 20.068C29.2935 20.516 29.8301 20.74 30.4741 20.74ZM39.9479 14.16C40.5545 14.16 41.0959 14.286 41.5719 14.538C42.0572 14.79 42.4352 15.1633 42.7059 15.658C42.9765 16.1527 43.1119 16.75 43.1119 17.45V22H41.5299V17.688C41.5299 16.9973 41.3572 16.47 41.0119 16.106C40.6665 15.7327 40.1952 15.546 39.5979 15.546C39.0005 15.546 38.5245 15.7327 38.1699 16.106C37.8245 16.47 37.6519 16.9973 37.6519 17.688V22H36.0559V14.286H37.6519V15.168C37.9132 14.8507 38.2445 14.6033 38.6459 14.426C39.0565 14.2487 39.4905 14.16 39.9479 14.16ZM47.0097 15.588V19.858C47.0097 20.1473 47.075 20.3573 47.2057 20.488C47.3457 20.6093 47.579 20.67 47.9057 20.67H48.8857V22H47.6257C46.907 22 46.3563 21.832 45.9737 21.496C45.591 21.16 45.3997 20.614 45.3997 19.858V15.588H44.4897V14.286H45.3997V12.368H47.0097V14.286H48.8857V15.588H47.0097ZM54.3466 14.16C54.9346 14.16 55.4573 14.286 55.9146 14.538C56.3813 14.79 56.7453 15.1633 57.0066 15.658C57.2773 16.1527 57.4126 16.75 57.4126 17.45V22H55.8306V17.688C55.8306 16.9973 55.658 16.47 55.3126 16.106C54.9673 15.7327 54.496 15.546 53.8986 15.546C53.3013 15.546 52.8253 15.7327 52.4706 16.106C52.1253 16.47 51.9526 16.9973 51.9526 17.688V22H50.3566V11.64H51.9526V15.182C52.2233 14.8553 52.564 14.6033 52.9746 14.426C53.3946 14.2487 53.852 14.16 54.3466 14.16Z" fill="#091316"/>
<path d="M68.934 20.6721C68.7987 20.6721 68.6634 20.6205 68.5602 20.5172L63.2731 15.2302C63.0665 15.0236 63.0665 14.689 63.2731 14.4826C63.4797 14.2761 63.8142 14.276 64.0207 14.4826L68.934 19.3958L73.8472 14.4826C74.0538 14.276 74.3883 14.276 74.5948 14.4826C74.8013 14.6892 74.8014 15.0237 74.5948 15.2302L69.3077 20.5172C69.2045 20.6205 69.0692 20.6721 68.934 20.6721Z" fill="#091316"/>
</svg>
