<svg width="11" height="11" viewBox="0 0 11 11" fill="none" xmlns="http://www.w3.org/2000/svg">
<path d="M10.4938 8.9968C10.9099 9.4037 10.9099 10.0602 10.4938 10.4725C10.2885 10.6732 10.0111 10.7763 9.73921 10.7763C9.46735 10.7763 9.19548 10.6732 8.98465 10.4725L5.7833 7.34207L2.58196 10.4725C2.37667 10.6732 2.09926 10.7763 1.82739 10.7763C1.55553 10.7763 1.28367 10.6732 1.07283 10.4725C0.656712 10.0656 0.656712 9.40912 1.07283 8.9968L4.27418 5.86637L1.07283 2.73595C0.656712 2.32905 0.656712 1.67258 1.07283 1.26025C1.48895 0.853353 2.16029 0.853353 2.58196 1.26025L5.7833 4.39068L8.98465 1.26025C9.40077 0.853353 10.0721 0.853353 10.4938 1.26025C10.9099 1.66715 10.9099 2.32362 10.4938 2.73595L7.29243 5.86637L10.4938 8.9968Z" fill="#D12323"/>
</svg>
